# Blender 4.0.2
# www.blender.org
mtllib booth.mtl
o Plane
v -1.500000 0.000000 1.250000
v 1.500000 0.000000 1.250000
v -1.500000 0.000000 -1.250000
v 1.500000 0.000000 -1.250000
v -1.423979 0.000000 -1.186649
v -1.423979 0.000000 1.186649
v 1.423979 0.000000 1.186649
v 1.423979 0.000000 -1.186649
v -1.423979 0.964950 -1.186649
v -1.423979 0.964950 1.186649
v 1.423979 0.964950 1.186649
v 1.423979 0.964950 -1.186649
v -1.500000 0.964950 -1.250000
v -1.500000 0.964950 1.250000
v 1.500000 0.964950 1.250000
v 1.500000 0.964950 -1.250000
vn -0.0000 1.0000 -0.0000
vn -0.0000 -0.0000 -1.0000
vn -0.0000 -0.0000 1.0000
vn 1.0000 -0.0000 -0.0000
vn -1.0000 -0.0000 -0.0000
vt 0.025340 0.025340
vt 0.974660 0.025340
vt 0.974660 0.974660
vt 0.025340 0.974660
vt 0.000000 0.000000
vt 0.000000 1.000000
vt 1.000000 0.000000
vt 1.000000 1.000000
s 0
usemtl Metal
f 6/1/1 7/2/1 8/3/1 5/4/1
f 7/2/2 6/1/2 10/1/2 11/2/2
f 5/4/3 8/3/3 12/3/3 9/4/3
f 1/5/3 2/5/3 15/5/3 14/5/3
f 4/5/2 3/5/2 13/5/2 16/5/2
f 10/1/1 9/4/1 13/6/1 14/5/1
f 11/2/1 10/1/1 14/5/1 15/7/1
f 12/3/1 11/2/1 15/7/1 16/8/1
f 9/4/1 12/3/1 16/8/1 13/6/1
f 2/5/4 4/5/4 16/5/4 15/5/4
f 3/5/5 1/5/5 14/5/5 13/5/5
f 8/3/5 7/2/5 11/2/5 12/3/5
f 6/1/4 5/4/4 9/4/4 10/1/4
o Cube
v -1.480153 0.968611 -1.256240
v -1.480153 1.968611 -1.256240
v -1.480153 0.968611 -1.176240
v -1.480153 1.968611 -1.176240
v 1.505515 0.968611 -1.256240
v 1.505515 1.968611 -1.256240
v 1.505515 0.968611 -1.176240
v 1.505515 1.968611 -1.176240
vn -1.0000 -0.0000 -0.0000
vn -0.0000 -0.0000 1.0000
vn 1.0000 -0.0000 -0.0000
vn -0.0000 -0.0000 -1.0000
vn -0.0000 -1.0000 -0.0000
vn -0.0000 1.0000 -0.0000
vt 0.375000 0.000000
vt 0.625000 0.000000
vt 0.625000 0.250000
vt 0.375000 0.250000
vt 0.625000 0.500000
vt 0.375000 0.500000
vt 0.625000 0.750000
vt 0.375000 0.750000
vt 0.625000 1.000000
vt 0.375000 1.000000
vt 0.125000 0.500000
vt 0.125000 0.750000
vt 0.875000 0.500000
vt 0.875000 0.750000
s 0
usemtl Glass.001
f 17/9/6 19/12/6 20/11/6 18/10/6
f 19/12/7 23/14/7 24/13/7 20/11/7
f 23/14/8 21/16/8 22/15/8 24/13/8
f 21/16/9 17/18/9 18/17/9 22/15/9
f 19/19/10 17/20/10 21/16/10 23/14/10
f 24/13/11 22/15/11 18/22/11 20/21/11
o Cube.001
v 1.502311 0.968611 -1.247453
v 1.502311 1.968611 -1.247453
v 1.502311 0.968611 1.232346
v 1.502311 1.968611 1.232346
v 1.422311 0.968611 -1.247453
v 1.422311 1.968611 -1.247453
v 1.422311 0.968611 1.232346
v 1.422311 1.968611 1.232346
vn 1.0000 -0.0000 -0.0000
vn -0.0000 -0.0000 1.0000
vn -1.0000 -0.0000 -0.0000
vn -0.0000 -0.0000 -1.0000
vn -0.0000 -1.0000 -0.0000
vn -0.0000 1.0000 -0.0000
vt 0.375000 0.000000
vt 0.625000 0.000000
vt 0.625000 0.250000
vt 0.375000 0.250000
vt 0.625000 0.500000
vt 0.375000 0.500000
vt 0.625000 0.750000
vt 0.375000 0.750000
vt 0.625000 1.000000
vt 0.375000 1.000000
vt 0.125000 0.500000
vt 0.125000 0.750000
vt 0.875000 0.500000
vt 0.875000 0.750000
s 0
usemtl Glass.001
f 25/23/12 26/24/12 28/25/12 27/26/12
f 27/26/13 28/25/13 32/27/13 31/28/13
f 31/28/14 32/27/14 30/29/14 29/30/14
f 29/30/15 30/29/15 26/31/15 25/32/15
f 27/33/16 31/28/16 29/30/16 25/34/16
f 32/27/17 28/35/17 26/36/17 30/29/17
o Cube.003
v -1.419567 0.968611 1.214934
v -1.419567 1.968611 1.214934
v -1.419567 0.968611 -1.235329
v -1.419567 1.968611 -1.235329
v -1.499567 0.968611 1.214934
v -1.499567 1.968611 1.214934
v -1.499567 0.968611 -1.235329
v -1.499567 1.968611 -1.235329
vn 1.0000 -0.0000 -0.0000
vn -0.0000 -0.0000 -1.0000
vn -1.0000 -0.0000 -0.0000
vn -0.0000 -0.0000 1.0000
vn -0.0000 -1.0000 -0.0000
vn -0.0000 1.0000 -0.0000
vt 0.375000 0.000000
vt 0.625000 0.000000
vt 0.625000 0.250000
vt 0.375000 0.250000
vt 0.625000 0.500000
vt 0.375000 0.500000
vt 0.625000 0.750000
vt 0.375000 0.750000
vt 0.625000 1.000000
vt 0.375000 1.000000
vt 0.125000 0.500000
vt 0.125000 0.750000
vt 0.875000 0.500000
vt 0.875000 0.750000
s 0
usemtl Glass.001
f 33/37/18 35/40/18 36/39/18 34/38/18
f 35/40/19 39/42/19 40/41/19 36/39/19
f 39/42/20 37/44/20 38/43/20 40/41/20
f 37/44/21 33/46/21 34/45/21 38/43/21
f 35/47/22 33/48/22 37/44/22 39/42/22
f 40/41/23 38/43/23 34/50/23 36/49/23
o Cube.004
v -1.505134 2.069307 1.255257
v -1.505134 1.973192 1.255257
v -1.505134 2.069307 -1.255257
v -1.505134 1.973192 -1.255257
v 1.505134 2.069307 1.255257
v 1.505134 1.973192 1.255257
v 1.505134 2.069307 -1.255257
v 1.505134 1.973192 -1.255257
vn -1.0000 -0.0000 -0.0000
vn -0.0000 -0.0000 -1.0000
vn 1.0000 -0.0000 -0.0000
vn -0.0000 -0.0000 1.0000
vn -0.0000 1.0000 -0.0000
vn -0.0000 -1.0000 -0.0000
vt 0.375000 0.000000
vt 0.625000 0.000000
vt 0.625000 0.250000
vt 0.375000 0.250000
vt 0.625000 0.500000
vt 0.375000 0.500000
vt 0.625000 0.750000
vt 0.375000 0.750000
vt 0.625000 1.000000
vt 0.375000 1.000000
vt 0.125000 0.500000
vt 0.125000 0.750000
vt 0.875000 0.500000
vt 0.875000 0.750000
s 0
usemtl Metal
f 41/51/24 43/54/24 44/53/24 42/52/24
f 43/54/25 47/56/25 48/55/25 44/53/25
f 47/56/26 45/58/26 46/57/26 48/55/26
f 45/58/27 41/60/27 42/59/27 46/57/27
f 43/61/28 41/62/28 45/58/28 47/56/28
f 48/55/29 46/57/29 42/64/29 44/63/29
o Cube.005
v -1.150022 0.708185 1.182610
v -1.150022 0.612070 1.182610
v -1.150022 0.708185 0.573820
v -1.150022 0.612070 0.573820
v 1.150022 0.708185 1.182610
v 1.150022 0.612070 1.182610
v 1.150022 0.708185 0.573820
v 1.150022 0.612070 0.573820
vn -1.0000 -0.0000 -0.0000
vn -0.0000 -0.0000 -1.0000
vn 1.0000 -0.0000 -0.0000
vn -0.0000 -0.0000 1.0000
vn -0.0000 1.0000 -0.0000
vn -0.0000 -1.0000 -0.0000
vt 0.375000 0.000000
vt 0.625000 0.000000
vt 0.625000 0.250000
vt 0.375000 0.250000
vt 0.625000 0.500000
vt 0.375000 0.500000
vt 0.625000 0.750000
vt 0.375000 0.750000
vt 0.625000 1.000000
vt 0.375000 1.000000
vt 0.125000 0.500000
vt 0.125000 0.750000
vt 0.875000 0.500000
vt 0.875000 0.750000
s 0
usemtl Metal
f 49/65/30 51/68/30 52/67/30 50/66/30
f 51/68/31 55/70/31 56/69/31 52/67/31
f 55/70/32 53/72/32 54/71/32 56/69/32
f 53/72/33 49/74/33 50/73/33 54/71/33
f 51/75/34 49/76/34 53/72/34 55/70/34
f 56/69/35 54/71/35 50/78/35 52/77/35
